<?xml version="1.0" encoding="UTF-8" standalone="no"?>
<!-- Uploaded to: SVG Repo, www.svgrepo.com, Generator: SVG Repo Mixer Tools -->

<svg
   width="96"
   height="96"
   viewBox="0 0 2.88 2.88"
   fill="none"
   version="1.1"
   id="svg2"
   sodipodi:docname="icon.svg"
   xml:space="preserve"
   inkscape:export-filename="icon.png"
   inkscape:export-xdpi="96"
   inkscape:export-ydpi="96"
   inkscape:version="1.3.2 (091e20ef0f, 2023-11-25, custom)"
   xmlns:inkscape="http://www.inkscape.org/namespaces/inkscape"
   xmlns:sodipodi="http://sodipodi.sourceforge.net/DTD/sodipodi-0.dtd"
   xmlns="http://www.w3.org/2000/svg"
   xmlns:svg="http://www.w3.org/2000/svg"><defs
     id="defs2" /><sodipodi:namedview
     id="namedview2"
     pagecolor="#ffffff"
     bordercolor="#000000"
     borderopacity="0.25"
     inkscape:showpageshadow="2"
     inkscape:pageopacity="0.0"
     inkscape:pagecheckerboard="0"
     inkscape:deskcolor="#d1d1d1"
     inkscape:zoom="4.6248675"
     inkscape:cx="34.163141"
     inkscape:cy="37.190255"
     inkscape:window-width="1536"
     inkscape:window-height="796"
     inkscape:window-x="0"
     inkscape:window-y="0"
     inkscape:window-maximized="1"
     inkscape:current-layer="svg2" /><g
     id="g2"
     transform="matrix(0.144,0,0,0.144,-0.288,-0.288)"><path
       opacity="0.5"
       d="M 2,12.2039 C 2,9.91549 2,8.77128 2.5192,7.82274 3.0384,6.87421 3.98695,6.28551 5.88403,5.10813 l 2,-1.24126 C 9.88939,2.62229 10.8921,2 12,2 c 1.1079,0 2.1106,0.62229 4.116,1.86687 l 2,1.24125 c 1.8971,1.17739 2.8456,1.76609 3.3648,2.71462 C 22,8.77128 22,9.91549 22,12.2039 v 1.5211 c 0,3.9008 0,5.8513 -1.1716,7.0631 C 19.6569,22 17.7712,22 14,22 H 10 C 6.22876,22 4.34315,22 3.17157,20.7881 2,19.5763 2,17.6258 2,13.725 Z"
       fill="#1C274C"
       id="path1"
       style="opacity:1;fill:#2ea44f;fill-opacity:1" /><path
       d="m 19.98,13.61 c 0,0 -2.4,-3.2 -4.8,0 a 3.2904,3.2904 0 0 0 -2.4,-1.5336 V 17.61 a 0.8,0.8 0 0 0 1.6,0 0.8,0.8 0 0 1 1.6,0 2.4,2.4 0 0 1 -4.8,0 V 12.0764 A 3.2904,3.2904 0 0 0 8.78,13.61 c -2.4,-3.2 -4.8,0 -4.8,0 a 8,8 0 0 1 7.2,-7.96 V 4.81 a 0.8,0.8 0 0 1 1.6,0 v 0.84 a 8,8 0 0 1 7.2,7.96 z"
       id="path1-1"
       style="opacity:1;fill:#ffffff;fill-opacity:1;stroke-width:0.8" /></g></svg>
